<svg xmlns="http://www.w3.org/2000/svg" version="1.1" xmlns:xlink="http://www.w3.org/1999/xlink" xmlns:svgjs="http://svgjs.dev/svgjs" width="308.7612359841165" height="304.915625"  viewBox="0 0 2000 1500"><rect width="2000" height="1500" fill="#"></rect><g transform="matrix(0.75,0,0,0.75,251.02607910944243,41.07555479898508)"><svg viewBox="0 0 261 247" data-background-color="#ffffff" preserveAspectRatio="xMidYMid meet" height="1892" width="2000" xmlns="http://www.w3.org/2000/svg" xmlns:xlink="http://www.w3.org/1999/xlink"><g id="tight-bounds" transform="matrix(1,0,0,1,-0.17853776504298935,-0.09997365579206985)"><svg viewBox="0 0 261.357075530086 247.2" height="247.2" width="261.357075530086"><g><svg viewBox="0 0 261.357075530086 247.2" height="247.2" width="261.357075530086"><g><svg viewBox="0 0 261.357075530086 247.2" height="247.2" width="261.357075530086"><g id="textblocktransform"><svg viewBox="0 0 261.357075530086 247.2" height="247.2" width="261.357075530086" id="textblock"><g><svg viewBox="0 0 261.357075530086 247.2" height="247.2" width="261.357075530086"><path d="M260.745 53.02C259.516 27.36 256.015 20.227 256.015 20.227 245.264-6.202 231.846-0.506 219.793 3.292 198.512 3.446 177.317 9.091 156.085 12.119 111.52 12.581 66.574 4.986 22.231 23.717 18.066 29.464-4.321 24.846 0.741 56.304 2.068 69.39 6.909 83.913 6.762 95.922 7.425 98.026 8.347 93.202 8.74 96.23 10.116 104.39 12.364 100.541 14.207 105.365 11.639 118.246 13.482 128.971 15.24 140.21 12.143 143.135 8.175 141.749 6.393 151.449 6.209 158.479 5.213 157.145 4.12 156.837 3.321 156.632 1.712 157.402 1.982 159.608 2.903 167.152-1.053 171.514 1.429 178.904-0.279 186.91 2.609 193.838 2.215 202.511 2.166 204.255 2.436 205.744 2.867 206.154 4.771 208.361 1.994 212.672 2.289 217.342 21.825 249.262 43.02 227.195 63.036 241.872 68.233 231.608 64.326 245.516 66.402 243.36 68.024 240.846 69.204 251.263 71.035 245.362 71.317 243.668 70.887 239.665 71.895 240.435 72.423 240.846 72.89 240.743 72.964 238.382 73.074 234.841 72.104 237.048 71.846 235.201 74.635 225.861 73.947 248.081 76.564 247.158 76.441 244.438 75.679 240.538 77.239 241.051 78.788 237.151 78.837 233.918 80.213 242.693 80.262 244.592 80.508 245.926 80.901 246.85 85.201 237.305 89.477 250.237 93.987 245.926 96.751 241.205 99.405 248.492 102.207 246.696 103.19 245.259 104.185 242.693 105.131 247.004 116.717 247.928 129.066 244.079 140.05 247.158 169.404 241.41 200.773 249.518 231.723 241.923 239.022 238.998 246.603 234.841 253.717 231.506 253.717 231.506 259.48 222.371 259.48 181.316S260.708 145.393 260.893 112.703C261.077 80.013 261.937 78.679 260.708 53.02Z" opacity="1" fill="#ff4136" data-fill-palette-color="tertiary"></path><g transform="matrix(1,0,0,1,55.76832,26.230666666666668)"><svg width="149.82043553008597" viewBox="0.4000000059604645 -34.900001525878906 26.850000381469727 34.900001525878906" height="194.73866666666666" data-palette-color="#ffffff"><path d="M16.5 0L11.2 0 11.2-13.5 0.4-34.9 6.35-34.9 13.6-19.3 14.25-19.3 21.4-34.9 27.25-34.9 16.5-13.5 16.5 0Z" opacity="1" transform="matrix(1,0,0,1,0,0)" fill="#ffffff" class="wordmark-text-0" data-fill-palette-color="quaternary" id="text-0"></path></svg></g></svg></g></svg></g></svg></g><g></g></svg></g><defs></defs></svg><rect width="261.357075530086" height="247.2" fill="none" stroke="none" visibility="hidden"></rect></g></svg></g></svg>